/* XPM */
static char *ibilechain64[] = {
/* columns rows colors chars-per-pixel */
"64 64 197 2 ",
"   c #337A2F532FA2",
".  c #35A230E52F5C",
"X  c #3CEE36A42F47",
"o  c #3E2837EA2F8E",
"O  c #333B2F2C3040",
"+  c #35AE313B3022",
"@  c #3A9335083009",
"#  c #3EAC38532FDE",
"$  c #4ACF2E2C08FA",
"%  c #53BD330B0A1D",
"&  c #554C3CA213ED",
"*  c #60623D4E10F1",
"=  c #4C393B1F232C",
"-  c #44893C8D2F42",
";  c #48403F8A2F9C",
":  c #411637332C22",
">  c #41DB3ADC2FC9",
",  c #5793403D1562",
"<  c #5B4043AF16DF",
"1  c #5E8D45E01868",
"2  c #71F944250E5A",
"3  c #6C5843E412C1",
"4  c #616A465E195C",
"5  c #64124BAC1A99",
"6  c #6B5F4C1A1B93",
"7  c #619043881636",
"8  c #7B6F4CB615BE",
"9  c #73A24D1A19C3",
"0  c #746646EA1187",
"q  c #6C2852221DD0",
"w  c #798A50401D21",
"e  c #4B1B41B12F4A",
"r  c #5CFF44DD247C",
"t  c #516046C42F0D",
"y  c #55914A1C2F03",
"u  c #5AC94DC82E46",
"i  c #5CD948EC2789",
"p  c #5E5750D82EB9",
"a  c #4DAC42E13107",
"s  c #50B946962FCA",
"d  c #5E0050623209",
"f  c #636C4D302229",
"g  c #64954E49294E",
"h  c #69D84B1D251A",
"j  c #629953FE2E52",
"k  c #6D3B56942C05",
"l  c #675357E62E65",
"z  c #6BB85B562E44",
"x  c #684951782449",
"c  c #745057832253",
"v  c #742D58F8225A",
"b  c #7A5B5E98236A",
"n  c #708D5ED92D88",
"m  c #7A6A5F2D2B70",
"M  c #691859EC322C",
"N  c #7C4360902613",
"B  c #73CC617E2DF5",
"V  c #79B166072DC4",
"C  c #7EBB69C12D67",
"Z  c #7E1065BE31A9",
"A  c #7CA868B63238",
"S  c #77D6660F3586",
"D  c #85E7591B1F97",
"F  c #933A5DFB1F86",
"G  c #87FF5E9A265C",
"H  c #813064172528",
"J  c #8B82654C24B3",
"K  c #85EC63B02AAE",
"L  c #8E1F64D22AE5",
"P  c #82376C112D24",
"I  c #8C6A6D4129FF",
"U  c #924B60862429",
"Y  c #9AF066C729CD",
"T  c #91086CFC2A59",
"R  c #9CED6B312C7E",
"E  c #998D66A42864",
"W  c #874870852D3A",
"Q  c #8C71740B2CCD",
"!  c #929277AC2D41",
"~  c #9B1F750E2E19",
"^  c #94A07A722D38",
"/  c #9AF47DCB2C7D",
"(  c #958872A62659",
")  c #80A46B5D3136",
"_  c #86BF635D3390",
"`  c #9DE56D3D335A",
"'  c #96BB6E2D3603",
"]  c #8D397568310B",
"[  c #872D710B306C",
"{  c #9E2375F930A5",
"}  c #95727AE6300B",
"|  c #9ADD7DEE3131",
" . c #9BA271F23927",
".. c #96A47886382A",
"X. c #A2326C462C66",
"o. c #A54872B72D97",
"O. c #A83B76942EF7",
"+. c #A3FB6F3C31DC",
"@. c #A9B77152304E",
"#. c #A3807D0232E9",
"$. c #A8DD7B783428",
"%. c #ACA87AE83C04",
"&. c #A257779D35B4",
"*. c #B4397C3D3CBD",
"=. c #B8937F6D3F7B",
"-. c #A3E77A85458C",
";. c #9E1D81C32C40",
":. c #9E4681DE3339",
">. c #A3A385AC2BD5",
",. c #A6FE88742BE9",
"<. c #AE188DDB2B53",
"1. c #B0B28FC82B95",
"2. c #B52993082B3A",
"3. c #B95F96302B0C",
"4. c #BE529A172B26",
"5. c #A40384043466",
"6. c #AAB78443365B",
"7. c #A6B189753639",
"8. c #AA62895C375E",
"9. c #AD83869B38C3",
"0. c #ADE58B8A38CD",
"q. c #A2EA880F3864",
"w. c #B3918560393D",
"e. c #B3058BF33ACD",
"r. c #B8F78D653B26",
"t. c #B76A969333E0",
"y. c #B1B692AD3BFE",
"u. c #BD5492C63E23",
"i. c #B72099603E38",
"p. c #C3109CEC2AE3",
"a. c #C21C95D93EFF",
"s. c #C792A0DB2A7D",
"d. c #CCAAA4852A68",
"f. c #D12CA77A2A95",
"g. c #D4D1AA6B29F7",
"h. c #DA7AAEC829C8",
"j. c #DE4AB29C299F",
"k. c #AAF281FD4639",
"l. c #ADF4844148A8",
"z. c #BBC383C64448",
"x. c #BC4B8D054241",
"c. c #B2D98A2C49E7",
"v. c #B857868149D7",
"b. c #BDC4907942CA",
"n. c #B88B922150D5",
"m. c #C0AE86E14686",
"M. c #C4FB8BD44B9A",
"N. c #C5398E0F49CE",
"B. c #C41E93CD467E",
"V. c #C49F9B8B42C1",
"C. c #C5ED96E74AB5",
"Z. c #CA5994EF4AFA",
"A. c #CBBC9D364D7A",
"S. c #C63999D94815",
"D. c #C7AE8F3550A3",
"F. c #CD1B942F53FA",
"G. c #CEB59B6E525C",
"H. c #CB039EF85C7B",
"J. c #D08F96BB5734",
"K. c #D5759BDF5C3C",
"L. c #D8D59EDD5F56",
"P. c #CEC2A5094B88",
"I. c #CA29A24D460C",
"U. c #D0EEA6A24DCB",
"Y. c #D01AA3475022",
"T. c #CD86A12E5F64",
"R. c #D29EA25654BA",
"E. c #D5B3AAB454DA",
"W. c #D5AEA3CA5B6E",
"Q. c #D8EFA2CF5EE9",
"!. c #D6FCA9F75BB2",
"~. c #D9CAA9B15D96",
"^. c #D5E9A0006079",
"/. c #DA43A01960CC",
"(. c #D042A5FE62B5",
"). c #DD37A4176443",
"_. c #DAE2AF0462E7",
"`. c #DD95AC536D44",
"'. c #DD2FB06E6268",
"]. c #E0C8A7936801",
"[. c #E386AC996AE8",
"{. c #E196B4436626",
"}. c #E63EB3696C70",
"|. c #E8F0B7606E94",
" X c #EAAAB54A72A3",
".X c #E743BC227143",
"XX c #EDAFBD84742B",
"oX c #EF61B9E8782E",
"OX c #F2D7BF817BCB",
"+X c #F19DC3767735",
"@X c #F41AC5617B3D",
"#X c #F62AC8FB7C14",
"$X c #F8ACCCCF7FE3",
"%X c #F6EDC3A480B8",
"&X c #F9CACD72809F",
"*X c #F871CB9080D4",
"=X c None",
/* pixels */
"=X=X=X=X=X=X=X=X=X=X=X=X=X=X=X=X=X=X=X=X=X=X=X=X=X=X=X=X=X=X=X=X=X=X=X=X=X=X=X=X=X=X=X=X=X=X=X=X=X=X=X=X=X=X=X=X=X=X=X=X=X=X=X=X",
"=X=X=X=X=X=X=X=X=X=X=X=X=X=X=X=X=X=X=X=X=X=X=X=X=X=X=X=X=X=X=X=X=X=X=X=X=X=X=X=X=X=X=X=X=X=X=X=X=X=X=X=X=X=X=X=X=X=X=X=X=X=X=X=X",
"=X=X=X=X=X=X=X=X=X=X=X=X=X=X=X=X=X=X=X=X=X=X=X=X=X=X=X=X=X=X=Xj.=X=X=X=X=X=X=X=X=X=X=X=X=X=X=X=X=X=X=X=X=X=X=X=X=X=X=X=X=X=X=X=X",
"=X=X=X=X=X=X=X=X=X=X=X=X=X=X=X=X=X=X=X=X=X=X=X=X=X=X=X=X=Xj.j.j.j.j.=X=X=X=X=X=X=X=X=X=X=X=X=X=X=X=X=X=X=X=X=X=X=X=X=X=X=X=X=X=X",
"=X=X=X=X=X=X=X=X=X=X=X=X=X=X=X=X=X=X=X=X=X=X=X=X=X=X=X=Xj.j.,.B ;.g.j.j.=X=X=X=X=X=X=X=X=X=X=X=X=X=X=X=X=X=X=X=X=X=X=X=X=X=X=X=X",
"=X=X=X=X=X=X=X=X=X=X=X=X=X=X=X=X=X=X=X=X=X=X=X=X=X=Xj.j.p.V @ + # B 4.j.j.=X=X=X=X=X=X=X=X=X=X=X=X=X=X=X=X=X=X=X=X=X=X=X=X=X=X=X",
"=X=X=X=X=X=X=X=X=X=X=X=X=X=X=X=X=X=X=X=X=X=X=X=X=Xj.g.;.y + + + + + t / g.j.j.=X=X=X=X=X=X=X=X=X=X=X=X=X=X=X=X=X=X=X=X=X=X=X=X=X",
"=X=X=X=X=X=X=X=X=X=X=X=X=X=X=X=X=X=X=X=X=X=X=Xj.j.p.B # + + + @ + + + # z 3.j.j.=X=X=X=X=X=X=X=X=X=X=X=X=X=X=X=X=X=X=X=X=X=X=X=X",
"=X=X=X=X=X=X=X=X=X=X=X=X=X=X=X=X=X=X=X=X=X=Xj.g.;.s + + + + +   + + + + + a ^ f.j.j.=X=X=X=X=X=X=X=X=X=X=X=X=X=X=X=X=X=X=X=X=X=X",
"=X=X=X=X=X=X=X=X=X=X=X=X=X=X=X=X=X=X=X=Xj.j.3.M + + @ + + + o u > @ + @ + + @ l 2.j.j.=X=X=X=X=X=X=X=X=X=X=X=X=X=X=X=X=X=X=X=X=X",
"=X=X=X=X=X=X=X=X=X=X=X=X=X=X=X=X=X=X=Xj.g.;.e O + + + + + + p s.z + + + + + + + e Q d.j.j.=X=X=X=X=X=X=X=X=X=X=X=X=X=X=X=X=X=X=X",
"=X=X=X=X=X=X=X=X=X=X=X=X=X=X=X=X=Xj.j.1.z o O O + + + + + + p g.C + + @ @ + + + + @ j 2.h.j.=X=X=X=X=X=X=X=X=X=X=X=X=X=X=X=X=X=X",
"=X=X=X=X=X=X=X=X=X=X=X=X=X=X=X=Xj.g.;.; + + + + + e > + + # n s.V @ # + @ a @ + + + + > W d.j.j.=X=X=X=X=X=X=X=X=X=X=X=X=X=X=X=X",
"=X=X=X=X=X=X=X=X=X=X=X=X=X=Xj.j.1.l   O + + + + e 1.;.s d V c.y.:.A ] S [ 2.y + + @ + + @ p <.j.j.=X=X=X=X=X=X=X=X=X=X=X=X=X=X=X",
"=X=X=X=X=X=X=X=X=X=X=X=X=Xj.d.Q ; + + + + + + + @ ;.3.;.b.:.5.^ } } :.y.y./ e + + + + + + + - C s.j.j.=X=X=X=X=X=X=X=X=X=X=X=X=X",
"=X=X=X=X=X=X=X=X=X=X=Xj.h.1.j @ + + + + + - y @ + M i.C ;.Q ^ W :.Q ^ W :.q.S e s e @ + + . + + u >.h.j.=X=X=X=X=X=X=X=X=X=X=X=X",
"=X=X=X=X=X=X=X=X=Xj.j.d.W > . . . . . . + C s.V d ) 5.! } / :.:.7.q.} / Q } 6.[ 4.^ @ + . . . . O > V p.j.j.=X=X=X=X=X=X=X=X=X=X",
"=X=X=X=X=X=X=X=Xj.h.<.p + . . . . . . + + t 3.3.q.:.P 5.:.:.q.y.y.y.7.7.| ^ Q t.t.p + @ . . . . + . . t ;.f.j.=X=X=X=X=X=X=X=X=X",
"=X=X=X=X=X=X=Xj.g.Q - O . + . . . . . + + + t Q I :.| / :.7.0.y.y.y.y.0.9.5.^ 8.P o + + + + + + . + . + X V f.j.=X=X=X=X=X=X=X=X",
"=X=X=X=X=X=X=Xj.p.e O . X u - . . e t @ + > u :.:.I $.#.8.6.8.e.e.y.e.e.y.9.{ ( P e + + e y @ + # u > . . o 2.j.=X=X=X=X=X=X=X=X",
"=X=X=X=X=X=X=Xj.p.e .   t 4.V O # ,.>.@ + C <.} 8.6.~ 5.6.6.8.9.e.e.0.e.e.9.#.#.0.A X . Q 3.e O p p.l + . # <.j.=X=X=X=X=X=X=X=X",
"=X=X=X=X=X=X=Xj.p.- . . o B e . @ j j + @ p N b ~ { ~ #.#.6.6.9.0.e.9.e.e.e.9.~ ~ Z X + u z @ O - B e . . X <.j.=X=X=X=X=X=X=X=X",
"=X=X=X=X=X=X=Xj.p.e + . . + + + + O O + + + . = J T ~ #.#.6.8.9.r.r.9.9.w.e.&.f e - + + + O + + O O + + + # <.h.=X=X=X=X=X=X=X=X",
"=X=X=X=X=X=X=Xj.4.a + @ t p p p p p p p p p u t L R x.!.'.'.{.'.{.{.{.'.!.A.6.y u p p u p p p p p p y # + X <.h.=X=X=X=X=X=X=X=X",
"=X=X=X=X=X=X=Xj.s.e + a 3.d.f.f.d.d.f.d.f.f.d.P K O.~.+X#X#X#X_. X.X.X$X$X+XT.C s.f.d.f.f.d.d.d.f.d.p.p . o <.j.=X=X=X=X=X=X=X=X",
"=X=X=X=X=X=X=Xj.p.a + X l z B z n n n n n n n u K @.W.+X@X+X+X' n.c.c.$X$X$X(.p z z n n n n n n n B l - . o <.g.=X=X=X=X=X=X=X=X",
"=X=X=X=X=X=X=Xj.p.> + + + O O + + + + + O O O : G o.C. XOX X X' c.k. .+X%X#XT.a O O + . + + + + + O + . . X <.j.=X=X=X=X=X=X=X=X",
"=X=X=X=X=X=X=Xj.p.e + + @ u > + @ n d + + u u 7 8 o.G. XOXoX[. .k.l. . XOX%XT.e - p @ . s n o + o p o . . o <.h.=X=X=X=X=X=X=X=X",
"=X=X=X=X=X=X=Xj.p.a + + > ;.j @ C f.s.p @ Q ( 0 8 D.[.}. X].[.` -.-. .[.oX%X`.h k ^ - t 2.j.Q @ e ;.s @ . o <.h.=X=X=X=X=X=X=X=X",
"=X=X=X=X=X=X=Xj.p.- + + @ > > C f.,.3.4.d # g F R L./.J.J.M.M.U @.-.L J.L.[.`.Y i o y 2.4.;.f.W # > @ + . o <.j.=X=X=X=X=X=X=X=X",
"=X=X=X=X=X=X=Xj.p.e + + @ # C d.;.- y 3.p.p V @.z.L.D.D.D.M.m.-.M.D.v.D.K.).).M.A d 3.p.j # Q f.W # @ + + o <.h.=X=X=X=X=X=X=X=X",
"=X=X=X=X=X=X=Xj.p.- + - ! <.f.>.- . @ t 3.f.p.X.=.L.z.E w 6 +.z.L.].D.` L %.K.Z.d.d.p.p + @ o ! f.1.;.t . o <.j.=X=X=X=X=X=X=X=X",
"=X=X=X=X=X=X=Xj.p.- + e <.p.g.! # + O > <.h.f.o.=.L.M.X.* % D *.].[.*.* * X.K.Z.g.g.3.a + @ @ C g.4.2.p . o <.j.=X=X=X=X=X=X=X=X",
"=X=X=X=X=X=X=Xj.p.a + @ o e / f.P # > >.d.) ] @.@.J.K.m.@.Y X.m.[. XM.+.X.D.).a.;.V s.1.a + C f.;.a o @ . o <.j.=X=X=X=X=X=X=X=X",
"=X=X=X=X=X=X=Xj.p.- + + + + > / f.Q >.f.V + # k F -./.L.J.F.N.N.[. XJ.F.^.]./.Z - + l d.1.P d.;.> + + @ . o <.j.=X=X=X=X=X=X=X=X",
"=X=X=X=X=X=X=Xj.p.e + + @ j ; > / h.f.V @ j y : * @././.L.J.N.L. XoX)./.).[.-.: a l # l s.j.>.> # l # . . o 1.j.=X=X=X=X=X=X=X=X",
"=X=X=X=X=X=X=Xj.p.e + + > ! u O > Q B # X P n r D F K./.).F.z.%.F.Q.F.Q.[.[._ : p Q - + j Q e @ e / s + . o 1.h.=X=X=X=X=X=X=X=X",
"=X=X=X=X=X=X=Xj.p.- + + O # @ + + + O O   X : & % F Z.L.R.G.x.Y X.w.N.~.}.^.9 = @ o + + + + + . @ @ @ . . o 1.j.=X=X=X=X=X=X=X=X",
"=X=X=X=X=X=X=Xj.p.- + @ a t s s y y s s y t y 7 $ D Z.G.R.A.B.B.w.r.G.~.}.v.& y s e s t s s s e e s e @ . o <.j.=X=X=X=X=X=X=X=X",
"=X=X=X=X=X=X=Xj.p.a + e 2.d.d.s.p.p.d.d.p.d.p.J % 8 r.R.R.B.b.C.N.Z.A.R.{. .6 2.d.s.s.s.s.s.s.d.s.s.p.p + @ <.j.=X=X=X=X=X=X=X=X",
"=X=X=X=X=X=X=Xj.p.; O > n P P P P P P P C P C v & 7 O.S.A.a.$.{ $.6.e.R.E.v q C C P C P C C C C C C C e . o 2.j.=X=X=X=X=X=X=X=X",
"=X=X=X=X=X=X=Xj.p.; + + O + + + # y # O O > # i 4 & J w.V.u.r.b.S.S.A.E.b.4 f # + > + O @ t o + + + + . . o <.j.=X=X=X=X=X=X=X=X",
"=X=X=X=X=X=X=Xj.p.; + + + l n + u 4.u O j 2.z ; 5 & q O.r.u.u.r.a.V.U.E.P < x . j 2.j + a 3.l + p V . . . o <.j.=X=X=X=X=X=X=X=X",
"=X=X=X=X=X=X=Xj.p.; + + + z B + j d.j d p.2.s > x , , N O.r.u.V.I.U.U.| 1 5 u . a 2.p.j t p.B O p C o . . o <.j.=X=X=X=X=X=X=X=X",
"=X=X=X=X=X=X=Xj.d.u O + + + + + j p.Q p.1.s + # q < & < H ~ 8.u.V.V.5.5 < q p . . t 2.p.P s.B + @ @ + . + s 4.j.=X=X=X=X=X=X=X=X",
"=X=X=X=X=X=X=X=Xj.3.j @ + + + + j g.g.1.s + O s P 6 , , 1 b I / &.I q 1 5 C <.p + + e ,.f.g.n + . . . + p <.j.=X=X=X=X=X=X=X=X=X",
"=X=X=X=X=X=X=X=X=Xj.f.Q ; + + + j g.1.y + O s 1.3.c 5 1 & , 5 q q 5 1 5 q v 4.3.u + + a ,.j.z + + + o W d.j.=X=X=X=X=X=X=X=X=X=X",
"=X=X=X=X=X=X=X=X=X=Xj.h.2.j + + > P s + + t 1.d.l u q 5 5 5 1 1 1 5 5 q b t p s.3.t + + e C e + + p <.g.j.=X=X=X=X=X=X=X=X=X=X=X",
"=X=X=X=X=X=X=X=X=X=X=Xj.j.d.W > + + + + + W s.l + e V q q q q 5 5 q q v Q l + p 4.Q @ + + + + # C s.j.j.=X=X=X=X=X=X=X=X=X=X=X=X",
"=X=X=X=X=X=X=X=X=X=X=X=X=Xj.j.<.d @ + + + e y @ + @ - x N v v q q w N j e @ @ + y e + + + @ y ,.g.j.=X=X=X=X=X=X=X=X=X=X=X=X=X=X",
"=X=X=X=X=X=X=X=X=X=X=X=X=X=Xj.j.d.P > + + + + + + @ e ;./ v N N V x ;.2.t . @ + @ + + + # V s.j.j.=X=X=X=X=X=X=X=X=X=X=X=X=X=X=X",
"=X=X=X=X=X=X=X=X=X=X=X=X=X=X=X=Xj.g.,.u + + + + + @ Q f.V o p ;.l . l s.,.o + + + + @ y ;.g.j.=X=X=X=X=X=X=X=X=X=X=X=X=X=X=X=X=X",
"=X=X=X=X=X=X=X=X=X=X=X=X=X=X=X=X=Xj.j.s.C > + + + + p l @ + p d.z . @ p l @ + + + @ n 4.j.j.=X=X=X=X=X=X=X=X=X=X=X=X=X=X=X=X=X=X",
"=X=X=X=X=X=X=X=X=X=X=X=X=X=X=X=X=X=X=Xj.g.,.y + . . + + + + p d.z . + + + + + + a ;.g.j.=X=X=X=X=X=X=X=X=X=X=X=X=X=X=X=X=X=X=X=X",
"=X=X=X=X=X=X=X=X=X=X=X=X=X=X=X=X=X=X=X=Xj.j.s.C # + + + + + e Q t + + . + + @ n 4.j.j.=X=X=X=X=X=X=X=X=X=X=X=X=X=X=X=X=X=X=X=X=X",
"=X=X=X=X=X=X=X=X=X=X=X=X=X=X=X=X=X=X=X=X=X=Xj.g.>.u + + @ + + + + . + + @ e ^ g.j.=X=X=X=X=X=X=X=X=X=X=X=X=X=X=X=X=X=X=X=X=X=X=X",
"=X=X=X=X=X=X=X=X=X=X=X=X=X=X=X=X=X=X=X=X=X=X=Xj.j.s.C > + + + . . + . @ z 3.j.j.=X=X=X=X=X=X=X=X=X=X=X=X=X=X=X=X=X=X=X=X=X=X=X=X",
"=X=X=X=X=X=X=X=X=X=X=X=X=X=X=X=X=X=X=X=X=X=X=X=X=Xj.g.>.y + . . . + e ^ f.j.=X=X=X=X=X=X=X=X=X=X=X=X=X=X=X=X=X=X=X=X=X=X=X=X=X=X",
"=X=X=X=X=X=X=X=X=X=X=X=X=X=X=X=X=X=X=X=X=X=X=X=X=X=Xj.j.p.C # + @ l 3.j.j.=X=X=X=X=X=X=X=X=X=X=X=X=X=X=X=X=X=X=X=X=X=X=X=X=X=X=X",
"=X=X=X=X=X=X=X=X=X=X=X=X=X=X=X=X=X=X=X=X=X=X=X=X=X=X=X=Xj.g.>.z ^ f.j.=X=X=X=X=X=X=X=X=X=X=X=X=X=X=X=X=X=X=X=X=X=X=X=X=X=X=X=X=X",
"=X=X=X=X=X=X=X=X=X=X=X=X=X=X=X=X=X=X=X=X=X=X=X=X=X=X=X=X=Xj.j.j.j.j.=X=X=X=X=X=X=X=X=X=X=X=X=X=X=X=X=X=X=X=X=X=X=X=X=X=X=X=X=X=X",
"=X=X=X=X=X=X=X=X=X=X=X=X=X=X=X=X=X=X=X=X=X=X=X=X=X=X=X=X=X=X=Xj.=X=X=X=X=X=X=X=X=X=X=X=X=X=X=X=X=X=X=X=X=X=X=X=X=X=X=X=X=X=X=X=X",
"=X=X=X=X=X=X=X=X=X=X=X=X=X=X=X=X=X=X=X=X=X=X=X=X=X=X=X=X=X=X=X=X=X=X=X=X=X=X=X=X=X=X=X=X=X=X=X=X=X=X=X=X=X=X=X=X=X=X=X=X=X=X=X=X",
"=X=X=X=X=X=X=X=X=X=X=X=X=X=X=X=X=X=X=X=X=X=X=X=X=X=X=X=X=X=X=X=X=X=X=X=X=X=X=X=X=X=X=X=X=X=X=X=X=X=X=X=X=X=X=X=X=X=X=X=X=X=X=X=X"
};
