/* XPM */
static char *ibilechain32[] = {
/* columns rows colors chars-per-pixel */
"32 32 137 2 ",
"   c #33BF2F802F85",
".  c #34C430512F81",
"X  c #3B2B354E2F87",
"o  c #3EA838142F95",
"O  c #32A42EE8302B",
"+  c #355B311C3023",
"@  c #3A0D34BA3001",
"#  c #3EB2383A2FDF",
"$  c #44223C5C2F58",
"%  c #48653F062E3A",
"&  c #427F3B342FC6",
"*  c #5B5143421698",
"=  c #5CC44578199C",
"-  c #6CD848D3177D",
";  c #619F452B17E6",
":  c #65C04D261B72",
">  c #6D3553B91E13",
",  c #7D8151E81CD2",
"<  c #4D01434D2F37",
"1  c #553542AC24DF",
"2  c #515046962F04",
"3  c #568D4A962EEF",
"4  c #5AB74D322E2C",
"5  c #5F4D516A2ECB",
"6  c #47F63FC9300A",
"7  c #5B684ECF3178",
"8  c #64624ECB2C44",
"9  c #64BF50B22673",
"0  c #6BAD53E8208D",
"q  c #6EF958F925C6",
"w  c #63B454702E28",
"e  c #6A7F55CB2968",
"r  c #6BE15AF32E13",
"t  c #70B356262189",
"y  c #7C7F571E2165",
"u  c #75B85B5322AA",
"i  c #7B145C9422BF",
"p  c #71C55F222D81",
"a  c #63AA55363134",
"s  c #6BCD5AA53002",
"d  c #763762EB2DCB",
"f  c #7B2865262B93",
"g  c #7D9F68682D7E",
"h  c #7AF7673A30DD",
"j  c #7EAF69C3302F",
"k  c #87275819212B",
"l  c #84F06DBB2D1E",
"z  c #8F2168362AB2",
"x  c #931664CA2A09",
"c  c #875570292CC7",
"v  c #8C0873862CFA",
"b  c #90EC77722CAB",
"n  c #938979582CA8",
"m  c #9A0F7E552C67",
"M  c #811966C930DA",
"N  c #863D6FC33238",
"B  c #8AB76C143360",
"V  c #95DF6D512FCC",
"C  c #9A6D69F53191",
"Z  c #97137B9E304D",
"A  c #9B6C7D433168",
"S  c #9B0A778137CE",
"D  c #A28175742E1B",
"F  c #A5827BA62E94",
"G  c #A07A6EAA3531",
"H  c #AAB374913739",
"J  c #A3247C0E329F",
"K  c #A54474E03B3F",
"L  c #AEA778CB3BC2",
"P  c #917371094527",
"I  c #916C74B14B84",
"U  c #A4BC7C84418C",
"Y  c #B5967FEF4344",
"T  c #9E10813D2C32",
"R  c #9D7981F432E7",
"E  c #A402856E2C64",
"W  c #A6E5880A2BDB",
"Q  c #AAF88B1F2BB7",
"!  c #B0F78F4C2C02",
"~  c #B49492B42B0B",
"^  c #B84395362B20",
"/  c #BDCB99932AF2",
"(  c #A46F84AD3442",
")  c #AA0D8597368E",
"_  c #A8588B1C3724",
"`  c #AE4B8CB5394B",
"'  c #B352874E3B3F",
"]  c #B84C82C93F0B",
"[  c #B1338AB13941",
"{  c #BA1F899B3FB6",
"}  c #B2FB90E03BDC",
"|  c #BF87951D3EC5",
" . c #C3729E1B2ABB",
".. c #C704A0B52A94",
"X. c #CBEDA48E2A61",
"o. c #D5DCAC3E29FB",
"O. c #D990AF3029D5",
"+. c #DB52B05429C4",
"@. c #9FFB818B4826",
"#. c #AE8283334CB2",
"$. c #B63D837F47A8",
"%. c #BC3485204748",
"&. c #B5CC8B5840FD",
"*. c #BB6F8DCC416B",
"=. c #B95885904A1C",
"-. c #BCDD8A194CE9",
";. c #BD04963C4456",
":. c #BE639316500C",
">. c #C0658B17474F",
",. c #C085878F47F0",
"<. c #C6C68CC54CFE",
"1. c #C36795E843FF",
"2. c #C335932E4819",
"3. c #CB8197524DEC",
"4. c #C54F9A314C20",
"5. c #CD0A9CA24F3F",
"6. c #C21B94C7547B",
"7. c #CBD9938F52C8",
"8. c #C9AE9EDF50B1",
"9. c #C81A9A9F598B",
"0. c #D2819CDF572C",
"q. c #D5B69DA35BC6",
"w. c #CA21A02B465A",
"e. c #CD0DA0B94E2D",
"r. c #CD5CA23B5342",
"t. c #C9A8A0A35B7E",
"y. c #D245A1A8552C",
"u. c #DB70A5136242",
"i. c #D809AD22652A",
"p. c #DEA9AEFD6339",
"a. c #E0BEA7F76789",
"s. c #E4ADADBA6CC9",
"d. c #E273B7056DE7",
"f. c #EB81B4347273",
"g. c #F172BF427839",
"h. c #F5C6C66B7BEE",
"j. c None",
/* pixels */
"j.j.j.j.j.j.j.j.j.j.j.j.j.j.j.j.j.j.j.j.j.j.j.j.j.j.j.j.j.j.j.j.",
"j.j.j.j.j.j.j.j.j.j.j.j.j.j.j.o.+.j.j.j.j.j.j.j.j.j.j.j.j.j.j.j.",
"j.j.j.j.j.j.j.j.j.j.j.j.j.O.~ p c X.j.j.j.j.j.j.j.j.j.j.j.j.j.j.",
"j.j.j.j.j.j.j.j.j.j.j.j.X.c & O + w Q O.j.j.j.j.j.j.j.j.j.j.j.j.",
"j.j.j.j.j.j.j.j.j.j.O.Q a + + & # + & l ..j.j.j.j.j.j.j.j.j.j.j.",
"j.j.j.j.j.j.j.j.j...l & + + + N 4 O + + 4 E o.j.j.j.j.j.j.j.j.j.",
"j.j.j.j.j.j.j.O.Q 5 . . 5 5 7 R h a s & + & g  .j.j.j.j.j.j.j.j.",
"j.j.j.j.j.j. .l o . o $ a R Z A Z R R 7 6 + + 3 E o.j.j.j.j.j.j.",
"j.j.j.j.o.E 3       2 n B Z A ( _ ( n R c X . . @ d / j.j.j.j.j.",
"j.j.j.j.T o $ o $ $ # g m A ( ` } [ ) A s . 6 X $ X 4  .j.j.j.j.",
"j.j.j.j.l O w < 4 3 < l A J ( ) ` [ ` J M # r o w < $ ~ j.j.j.j.",
"j.j.j.j.l + 2 3 3 4 4 4 x &.4.8.r.8.2.B w 7 3 3 4 & $ ~ j.j.j.j.",
"j.j.j.j.l & l n v b b g V p.h.i.t.d.h.@.c n v n v r $ ~ j.j.j.j.",
"j.j.j.j.l O & # < % & 1 x u.g.6.U 9.h.I $ # 3 o $ X $ ~ j.j.j.j.",
"j.j.j.j.l O 6 w E m w y L u.u.=.K -.f.#.9 p Q l 4 # $ ~ j.j.j.j.",
"j.j.j.j.l # d E w r E D <.%.C L 7.$.=.7.( T 6 c n 4 $ ~ j.j.j.j.",
"j.j.j.j.l # g Q 3 w Q F ,.%.k H u.K G 3.Q m & l T a $ ~ j.j.j.j.",
"j.j.j.j.l + & w E F w 4 C q.7.7.s.q.u.P 2 g Q v < X $ ~ j.j.j.j.",
"j.j.j.j.l O < & 3 < % 1 k 7.0.Y *.q.u.8 < # 4 & < # $ ~ j.j.j.j.",
"j.j.j.j.l # g c l l l u - 2.8.*.*.0.:.i l l l l l w $ ~ j.j.j.j.",
"j.j.j.j.l X 5 w p a r q ; ( 1.$.*.5.S 9 r w r r a < $ ~ j.j.j.j.",
"j.j.j.j.l   < < g w v 4 = , [  .w.;.0 % d d g 4 4 X $ ~ j.j.j.j.",
"j.j.j.j.Q < . X b ~ a < > * M J ) i > r $ b ~ 4 X . d X.j.j.j.j.",
"j.j.j.j.j.^ r . d r $ v f ; ; : : : q m r $ l 2 $ b X.j.j.j.j.j.",
"j.j.j.j.j.j.X.n 6 O 2 r & 9 > > > u 4 6 r X X a ~ j.j.j.j.j.j.j.",
"j.j.j.j.j.j.j.j.~ r + + @ l p f e v 5 + . $ v X.j.j.j.j.j.j.j.j.",
"j.j.j.j.j.j.j.j.j.X.v & + 2 @ c 7 $ $ + w Q j.j.j.j.j.j.j.j.j.j.",
"j.j.j.j.j.j.j.j.j.j.j.~ w + + 2 o + $ l X.j.j.j.j.j.j.j.j.j.j.j.",
"j.j.j.j.j.j.j.j.j.j.j.j.X.v $ . . 5 Q o.j.j.j.j.j.j.j.j.j.j.j.j.",
"j.j.j.j.j.j.j.j.j.j.j.j.j.j.~ r l ..j.j.j.j.j.j.j.j.j.j.j.j.j.j.",
"j.j.j.j.j.j.j.j.j.j.j.j.j.j.j.o.j.j.j.j.j.j.j.j.j.j.j.j.j.j.j.j.",
"j.j.j.j.j.j.j.j.j.j.j.j.j.j.j.j.j.j.j.j.j.j.j.j.j.j.j.j.j.j.j.j."
};
