/* XPM */
static char *ibilechain16[] = {
/* columns rows colors chars-per-pixel */
"16 16 116 2 ",
"   c #3A2534A12F70",
".  c #3AA434E42F7E",
"X  c #44753C9A2F8B",
"o  c #469C3E512F90",
"O  c #46073E0B2FCF",
"+  c #49EB40EE2F5F",
"@  c #4B2442012FAB",
"#  c #4C8F42F42F69",
"$  c #4D6043562ECC",
"%  c #4E70447A2F4C",
"&  c #50A445EA2F31",
"*  c #512C46682F00",
"=  c #51BE46D52EFB",
"-  c #522447312F29",
";  c #552349022E36",
":  c #54BF49282EF3",
">  c #5556499A2EE2",
",  c #56BC4A7C2E98",
"<  c #56BD4AC32ED9",
"1  c #57724B4E2ECE",
"2  c #59CB4B752C23",
"3  c #58064BBD2EDD",
"4  c #58C64C592EE4",
"5  c #5A1C4D2F2E95",
"6  c #5B1B4E352EBD",
"7  c #5DC0501D2EAE",
"8  c #5E5A50982EA1",
"9  c #5F78516A2E88",
"0  c #5AE54D602FD6",
"q  c #6405504B272B",
"w  c #687D515E2078",
"e  c #6FE2584D2445",
"r  c #6F87592C25F4",
"t  c #6F7A5A832777",
"y  c #607051F82E39",
"u  c #636054122E70",
"i  c #648B54B12C98",
"p  c #643C54C02E72",
"a  c #674A559E2EBC",
"s  c #65D456192F20",
"d  c #678A573E2DC8",
"f  c #69C655A12A95",
"g  c #697B56DE2CCF",
"h  c #67FB579D2E41",
"j  c #6CA259512A43",
"k  c #690D58D32E37",
"l  c #69A159542E5E",
"z  c #6A17598F2E38",
"x  c #6B475A6D2E28",
"c  c #6D4C5BFC2DFC",
"v  c #6E215C972E00",
"b  c #6ED05D4A2E36",
"n  c #6F8F5DD02DF2",
"m  c #7CBB5F002395",
"M  c #7A8B5B0F2556",
"N  c #70B45E7D2D2D",
"B  c #71DD5F992D80",
"V  c #71F95F9D2D83",
"C  c #77BE5ED22D81",
"Z  c #65EB56EC30DD",
"A  c #699B59CC3052",
"S  c #7FF862F72619",
"D  c #729E60192D87",
"F  c #7342608C2D72",
"G  c #72525FEB2DE2",
"H  c #76C463632DAB",
"J  c #741161402DCB",
"K  c #752262072DE0",
"L  c #77CC64372DF0",
"P  c #7997657F2D8D",
"I  c #7A3C663F2D9E",
"U  c #7FCA6A392D58",
"Y  c #846B684D2DB4",
"T  c #82026BF52D3D",
"R  c #87356FC22CED",
"E  c #89E669D92CC1",
"W  c #8DB474CA2CC1",
"Q  c #8EF475ED2CC2",
"!  c #8F7976322CB9",
"~  c #95C37B152C63",
"^  c #9BEE7FDA2C14",
"/  c #836D6BDE2FE1",
"(  c #84296B4F2FDF",
")  c #856E6F423175",
"_  c #88CD720B31D0",
"`  c #9FC273AE36AF",
"'  c #97207A3A30F2",
"]  c #9D477E9D3255",
"[  c #A19B7BD23565",
"{  c #9E067A1241F8",
"}  c #B3C77F504309",
"|  c #9D1780B82C21",
" . c #A1B084482C13",
".. c #A23F84AC2C04",
"X. c #A5B987832BE7",
"o. c #A46A85583449",
"O. c #A9A989C036A3",
"+. c #A9F085053CBD",
"@. c #B7748C703C9B",
"#. c #B9F88359457B",
"$. c #B170836A47D5",
"%. c #B8AE84BC47D9",
"&. c #B91685C6497C",
"*. c #BDB7876648B8",
"=. c #B6F289F94914",
"-. c #BC5692C04278",
";. c #BBBC9388457F",
":. c #BF448EE85134",
">. c #BF3399395CD5",
",. c #C82294AF4BD5",
"<. c #C13D98684834",
"1. c #CB2E98094FF0",
"2. c #CCFF9584562C",
"3. c #CAC69EC65AE0",
"4. c #DBEBAD43667E",
"5. c None",
/* pixels */
"5.5.5.5.5.5.5.5.5.5.5.5.5.5.5.5.",
"5.5.5.5.5.5...k J 5.5.5.5.5.5.5.",
"5.5.5.5.5.U + @ O > ! 5.5.5.5.5.",
"5.5.5.| y X A _ ) Z o c 5.5.5.5.",
"5.5.R $   s ' o.O.] 0 . , ~ 5.5.",
"5.5.u > 6 g [ ;.<.+.a 6 = D 5.5.",
"5.5.p 8 n f =.4.3.>.h b 1 F 5.5.",
"5.5.u z I E *.%.&.:.( P 8 V 5.5.",
"5.5.u x I Y } #.2.$./ P 9 B 5.5.",
"5.5.p 7 b q ` ,.1.{ i c < D 5.5.",
"5.5.u 3 L j M @.-.C N G * F 5.5.",
"5.5.W : K d w m S t l v 5 ^ 5.5.",
"5.5.5.X.l # 2 e r ; % H 5.5.5.5.",
"5.5.5.5.5.T - & # 4 Q 5.5.5.5.5.",
"5.5.5.5.5.5. .h n 5.5.5.5.5.5.5.",
"5.5.5.5.5.5.5.5.5.5.5.5.5.5.5.5."
};
